PathFileType	4	(X/Y/Z)	C:/Users/beibeiliu/ov580/test_trc/User3\sequence.17_training_dense_right.trc
DataRate	CameraRate	NumFrames	NumMarkers	Units	OrigDataRate	OrigDataStartFrame	OrigNumFrames
120	120	22	19	mm	120	217	247
Frame#	Time	ThumbCMC			ThumbMCP			ThumbIP			ThumbTip			IndexMCP			IndexPIP			IndexTip			MiddleMCP			MiddlePIP			MiddleTip			RingMCP			RingPIP			RingTip			PinkyMCP			PinkyPIP			PinkyTip			BackHand1			BackHand2			BackHand3	
		X0	Y0	Z0	X1	Y1	Z1	X2	Y2	Z2	X3	Y3	Z3	X4	Y4	Z4	X5	Y5	Z5	X6	Y6	Z6	X7	Y7	Z7	X8	Y8	Z8	X9	Y9	Z9	X10	Y10	Z10	X11	Y11	Z11	X12	Y12	Z12	X13	Y13	Z13	X14	Y14	Z14	X15	Y15	Z15	X16	Y16	Z16	X17	Y17	Z17	X18	Y18	Z18	
216	1.8	155.55	-6.34342	14.5103	125.58	14.4039	-2.80714	100.732	15.9583	-12.2347	73.1199	8.64237	-15.7539	130.396	-28.5279	-49.871	122.701	-23.4214	-77.2907	109.054	-24.752	-101.658	101.214	-32.8643	-39.8596	79.0042	-4.97594	-35.6012	96.4977	0.930667	-0.657192	87.7545	-40.2574	-25.0542	71.2099	-15.592	-19.2246	91.114	0.156837	6.23382	89.5861	-58.974	-5.62363	74.3003	-61.3916	-17.4818	55.4092	-68.0537	-31.2685	130.669	-63.9767	8.15211	146.62	-64.5574	33.8823	160.605	-41.261	3.42034	
217	1.80833	162.285	-5.70162	12.0516	135.039	12.2109	-5.19666	108.375	13.8622	-19.639	83.8517	1.59776	-23.2118	144.194	-31.3082	-54.9107	135.331	-29.3584	-81.8178	129.352	-28.0472	-103.832	110.913	-34.8549	-49.6953	92.3415	-10.0454	-49.6469	104.925	2.1718	-12.9084	97.3179	-43.6755	-32.0182	80.0211	-17.5569	-26.4043	95.5847	-5.39687	-1.24317	98.1825	-62.4984	-12.2148	83.1372	-65.5123	-23.7956	66.9245	-71.9617	-39.486	142.087	-64.8855	6.13229	154.236	-63.1795	32.2043	168.539	-45.4437	4.29473	
218	1.81667	167.202	-6.38233	12.5203	141.16	8.33448	-11.4022	115.588	9.11299	-28.7033	92.9334	-5.45618	-33.3279	155.128	-35.6599	-62.409	151.202	-34.3181	-87.0683	146.559	-34.93	-111.394	123.732	-41.8281	-52.4358	103.137	-14.1447	-54.8503	111.315	-2.26064	-21.5437	113.147	-49.4302	-36.7041	89.7954	-23.9602	-34.7383	105.575	-7.16787	-10.4388	107.926	-67.1612	-16.0898	95.1085	-69.8876	-34.9559	81.7933	-76.2286	-50.5342	147.6	-65.7626	3.88897	162.239	-63.9336	29.1474	177.838	-44.7117	6.34951	
219	1.825	171.085	-8.20195	6.75094	147.454	6.65817	-14.8044	123.094	2.26181	-37.849	102.519	-10.2011	-43.346	170.118	-38.8832	-62.0265	167.763	-38.5793	-84.7392	166.805	-39.896	-112.544	138.948	-44.5277	-60.3593	115.949	-23.1288	-65.8739	118.88	-10.4672	-27.7233	123.302	-52.5289	-45.4963	101.731	-32.0452	-44.0559	111.786	-13.7465	-19.2537	122.175	-69.7408	-22.0529	108.956	-74.9285	-42.1522	98.5644	-80.7163	-59.1762	160.458	-65.7301	2.61743	165.181	-64.1565	32.7324	183.287	-44.1315	6.12717	
220	1.83333	175.7	-2.45298	8.33456	150.689	4.45907	-19.1416	128.427	-5.38664	-42.781	111.039	-19.587	-47.947	182.466	-38.5663	-60.1307	182.333	-40.3291	-89.3967	183.545	-39.7799	-112.376	153.076	-51.1474	-58.3412	127.12	-29.6449	-69.858	126.502	-14.7525	-32.5613	137.149	-59.3353	-45.6256	111.749	-39.6248	-49.3154	117.921	-21.2835	-26.2027	133.893	-74.8636	-28.3821	121.841	-82.885	-47.3987	113.813	-85.8903	-63.898	170.037	-66.4589	2.73349	172.002	-62.222	30.7981	189.883	-42.239	7.36045	
221	1.84167	175.027	-2.62049	8.80359	151.438	-0.862976	-22.3909	133.223	-8.82079	-45.5075	116.016	-29.0104	-54.1273	192.78	-37.2053	-60.7813	194.654	-37.6756	-88.4239	197.29	-36.6331	-111.059	164.161	-54.209	-60.323	135.441	-35.9777	-70.1647	131.688	-21.4466	-36.7801	148.413	-63.1752	-50.9454	124.82	-47.4973	-56.0997	126.25	-28.462	-25.4248	148.524	-81.5714	-31.9418	143.16	-85.0824	-48.5237	135.412	-92.0942	-69.2085	179.411	-66.0775	2.0506	180.162	-63.1771	32.9145	197.309	-40.3102	6.86971	
222	1.85	172.724	-2.90268	8.38658	150.528	-2.36978	-24.8407	134.403	-10.2489	-47.7938	123.692	-37.5316	-55.7638	201.882	-30.3067	-59.9402	204.884	-31.0061	-86.4127	207.048	-28.3841	-106.542	173.935	-50.3643	-63.3162	143.524	-40.0353	-71.988	135.524	-27.166	-36.7236	162.202	-64.4811	-49.0026	135.078	-49.1457	-57.9534	129.147	-35.0979	-29.0684	164.757	-78.7692	-32.7008	159.925	-89.5679	-54.618	156.075	-92.3887	-75.5778	186.924	-63.3135	2.19551	189.025	-58.7673	32.8621	199.67	-34.0364	10.9988	
223	1.85833	168.811	-0.00601516	7.85212	148.344	-3.43265	-24.6121	135.33	-16.5282	-52.9154	129.454	-40.289	-59.4885	205.406	-21.2263	-57.5716	209.791	-17.5524	-81.2035	215.975	-14.4187	-107.346	183.202	-41.8983	-64.6077	153.383	-36.59	-75.5978	138.207	-27.8077	-41.8137	174.26	-62.0596	-50.6638	142.9	-54.9922	-58.8476	134.758	-39.2471	-30.5785	177.656	-80.2434	-30.5879	179.231	-86.4146	-55.9848	176.882	-90.3195	-74.7102	194.25	-60.2347	3.35512	191.974	-51.9844	34.0249	201.429	-24.0203	13.1578	
224	1.86667	161.888	1.56736	9.00044	142.495	-3.79212	-23.4584	133.578	-16.7946	-51.0967	134.952	-44.134	-63.7541	205.752	-10.4429	-55.3772	211.318	-4.99472	-80.8732	216.107	-1.13909	-103.235	190.09	-33.5492	-62.8595	159.427	-38.0938	-75.8646	140.628	-33.468	-43.3688	183.835	-52.7948	-52.7743	153.743	-55.4688	-62.3348	137.749	-47.1785	-34.8883	190.486	-70.2898	-32.184	194.115	-79.7042	-56.1279	194.511	-87.3848	-77.0933	200.529	-49.2458	3.96735	199.611	-50.1454	29.6929	199.12	-14.5064	15.8622	
225	1.875	155.032	-1.89149	12.3662	137.107	-7.13105	-20.5371	132.109	-18.5406	-49.8095	137.295	-43.8066	-65.4225	201.687	3.15383	-52.775	206.103	10.1151	-78.3886	211.846	15.2897	-101.759	190.765	-25.5006	-64.1984	164.046	-32.9852	-76.8764	143.492	-37.0424	-44.3988	190.818	-44.9027	-52.0929	161.02	-54.1163	-64.9711	142.564	-50.967	-35.7252	201.661	-62.4963	-38.1635	205.031	-71.9701	-54.8189	209.187	-78.0318	-76.479	205.398	-42.8199	3.60091	199.756	-41.7088	31.3643	195.825	-11.7598	13.5052	
226	1.88333	147.36	-4.57851	14.5552	135.842	-14.3494	-20.8786	134.526	-25.017	-46.2104	143.657	-45.8312	-64.8067	191.898	10.9375	-48.9369	197.319	17.7997	-75.169	201.79	24.2696	-97.2358	190.051	-21.1031	-61.0183	162.438	-30.892	-76.1377	143.392	-38.4577	-44.51	192.966	-36.0576	-53.6763	169.973	-51.1948	-66.6511	146.927	-51.7716	-38.7946	205.725	-52.9857	-33.781	211.541	-56.9724	-54.9028	219.828	-63.6688	-76.3278	206.54	-29.6356	4.36138	204.524	-38.3713	33.7968	189.038	-7.39125	15.7708	
227	1.89167	141.936	-13.2727	17.1651	129.388	-21.0193	-13.7252	129.225	-30.5606	-49.9193	145.12	-48.4518	-64.5221	179.974	14.6487	-45.6696	183.649	23.1519	-69.8288	184.86	32.4243	-92.851	186.047	-15.26	-57.9575	165.353	-32.3582	-76.4998	144.416	-42.9651	-43.6888	191.922	-32.1089	-56.0029	174.285	-51.7305	-67.4942	151.025	-56.9552	-40.7418	211.498	-46.8171	-34.4696	218.493	-49.3377	-56.3327	226.315	-49.9456	-74.0201	206.274	-25.1782	2.50338	203.801	-29.9427	32.2554	180.483	-2.67302	19.772	
228	1.9	135.074	-19.1574	18.1963	123.932	-27.1955	-17.2811	130.978	-37.4848	-44.849	141.478	-52.2352	-63.6942	169.099	11.2855	-42.7134	166.965	23.5872	-67.1791	173.06	31.565	-94.62	176.876	-12.4889	-60.6791	161.624	-36.7661	-73.9697	146.632	-48.9411	-39.37	192.152	-30.9739	-50.9952	172.608	-48.4728	-67.7775	154.008	-62.3443	-38.8439	207.293	-39.9891	-33.3644	216.323	-41.8379	-54.1129	228.02	-40.9174	-72.4909	201.683	-19.5661	3.66801	198.498	-27.1727	30.4933	172.614	-4.35063	19.3052	
229	1.90833	129.199	-28.6301	21.529	121.56	-40.1612	-10.4687	121.169	-49.2655	-43.3366	139.095	-60.9103	-59.8814	155.097	6.81688	-44.8885	153.006	16.2479	-67.7267	153.118	25.4826	-93.2621	168.89	-16.3941	-56.9437	156.481	-39.7699	-73.265	144.875	-55.6526	-38.399	183.087	-30.0091	-48.6261	171.502	-55.3746	-63.877	155.295	-68.3554	-39.5352	206.533	-38.8608	-31.183	214.958	-38.8074	-52.2583	220.805	-32.6661	-72.479	196.687	-21.2941	6.53301	192.468	-24.8252	35.2012	166.223	-7.35039	18.7511	
230	1.91667	127.994	-37.7005	21.9412	118.615	-50.556	-7.88705	123.186	-61.7646	-36.9478	140.069	-71.8229	-52.8134	142.654	-2.09028	-46.5726	136.359	5.99571	-71.1516	134.893	9.97265	-92.4972	159.143	-23.3582	-55.6896	148.895	-49.143	-71.3184	141.604	-65.0018	-33.7765	180.356	-36.1415	-47.639	167.778	-60.8684	-62.6997	155.862	-76.5112	-34.3892	199.151	-36.5669	-33.0998	208.823	-36.0045	-53.9214	219.76	-31.2779	-72.9005	185.706	-18.1026	8.95879	188.199	-25.4131	34.9175	154.643	-9.27329	23.066	
231	1.925	121.084	-44.7011	24.3306	115.506	-61.9984	-6.11249	122.627	-75.5621	-32.8627	143.437	-84.7165	-49.9374	133.575	-17.2941	-45.1078	125.217	-12.441	-72.4255	119.674	-9.17961	-92.7342	152.022	-35.9404	-54.4285	144.28	-65.1648	-65.4478	140.461	-73.8863	-25.4444	171.991	-48.1692	-50.8641	161.373	-72.9895	-57.2339	148.919	-83.2467	-23.997	195.126	-42.8184	-32.3733	203.042	-43.0468	-47.5638	207.073	-39.6368	-68.0673	179.91	-23.0932	5.61125	180.237	-24.1788	35.2476	146.128	-15.2418	19.3663	
232	1.93333	118.712	-50.4728	27.5819	112.675	-71.6438	-2.65204	120.711	-86.349	-27.8134	139.385	-96.5702	-43.6793	120.921	-25.692	-46.3774	114.217	-25.9275	-72.0608	109.73	-26.0324	-97.1923	142.993	-47.5786	-55.8776	136.959	-76.617	-61.5429	137.82	-81.489	-18.0682	166.164	-54.0636	-46.6497	159.476	-84.4248	-49.7393	151.363	-90.88	-18.904	188.834	-48.8443	-27.792	195.185	-48.1053	-52.3305	204.763	-45.7476	-69.1562	171.09	-26.7452	3.97466	177.395	-25.2758	32.8876	144.13	-20.2718	21.6013	
233	1.94167	114.082	-52.8584	29.084	107.709	-77.4312	6.22726	115.977	-94.7858	-21.1678	135.326	-104.951	-36.1254	117.305	-33.8781	-47.7428	110.964	-37.0366	-70.3401	106.896	-38.7659	-94.5907	143.117	-57.4274	-53.8019	131.832	-88.0453	-53.8094	130.735	-89.6482	-15.4603	156.982	-61.6143	-43.3784	153.4	-95.1934	-42.0601	141.673	-94.6663	-11.1863	185.413	-54.0407	-29.9419	190.12	-56.9877	-46.4004	198.367	-57.4454	-66.7627	168.813	-28.4388	5.78329	169.221	-26.3892	36.0404	139.318	-21.3973	19.5777	
234	1.95	112.031	-52.6152	34.1074	100.516	-81.3102	8.61453	109.056	-100.433	-14.2738	132.14	-112.171	-30.1306	113.158	-40.705	-43.8493	105.516	-45.5597	-70.2101	105.971	-49.9225	-91.2944	133.711	-62.7524	-47.9737	125.965	-93.6565	-49.4314	125.251	-95.5606	-9.22541	153.905	-70.3444	-39.7258	147.77	-102.406	-34.9419	138.05	-99.6726	-4.51673	177.065	-62.2933	-29.9159	183.381	-68.542	-46.8725	191.8	-69.6129	-69.5155	164.891	-32.178	4.64627	169.15	-27.4221	34.1842	136.442	-23.5252	19.167	
235	1.95833	107.898	-50.5429	35.9656	99.0839	-78.9532	16.9879	101.801	-102.967	-7.60958	124.577	-115.447	-19.5093	111.521	-46.3339	-41.8499	100.205	-52.5856	-67.4345	95.193	-59.6666	-91.3956	132.235	-71.0243	-44.6494	117.808	-101.539	-42.5839	118.651	-97.3659	0.7641	151.343	-80.2471	-35.0308	136.481	-107.888	-28.9527	131.064	-104.58	2.82879	172.11	-71.0114	-23.1067	179.302	-81.0011	-42.4816	184.768	-84.3078	-60.8941	160.903	-38.4008	1.68812	168.167	-31.0894	32.4012	134.115	-24.6935	15.0911	
236	1.96667	106.282	-47.2662	33.8918	93.5333	-73.7558	17.9396	93.9575	-100.088	-4.74756	110.719	-117.136	-13.3368	106.728	-51.3545	-42.2774	98.07	-57.5835	-64.7572	92.9907	-67.2689	-87.7515	122.731	-79.5924	-41.8796	109.587	-108.395	-32.483	111.153	-105.079	3.3489	137.844	-88.3435	-32.1673	129.165	-115.11	-17.5891	122.176	-107.824	10.0702	166.523	-80.3291	-21.8639	169.958	-91.1488	-36.121	175.779	-101.659	-58.9931	163.897	-44.4313	2.69858	167.981	-33.4909	31.0426	135.72	-25.376	19.0228	
237	1.975	104.379	-38.6667	38.9075	89.3449	-63.0132	15.9464	88.5731	-86.1501	-5.16117	108.822	-102.2	-8.593	104.162	-52.8502	-37.8165	94.456	-60.8554	-60.135	84.1215	-70.543	-83.6489	116.167	-82.0906	-34.2686	99.0618	-109.793	-27.5578	98.274	-110.328	13.4861	134.88	-91.6579	-23.832	116.817	-116.462	-10.3187	115.503	-106.439	19.4886	158.008	-87.6955	-18.3091	162.18	-101.598	-34.1804	165.203	-111.942	-53.6376	158.661	-47.0501	4.66494	165.201	-33.4764	31.2573	134.593	-25.5228	16.3178	
